HIERARCHY
ROOT Hips
{
  OFFSET 40.3414 83.9369 -0.324502
  CHANNELS 6 Xposition Yposition Zposition Zrotation Xrotation Yrotation
  JOINT spine
  {
    OFFSET 0 6.2448 0.359107
    CHANNELS 3 Zrotation Xrotation Yrotation
    JOINT spine1
    {
      OFFSET 0 9.06941 0
      CHANNELS 3 Zrotation Xrotation Yrotation
      JOINT spine2
      {
        OFFSET 0 8.69014 0
        CHANNELS 3 Zrotation Xrotation Yrotation
        JOINT Neck
        {
          OFFSET 0 22.3112 1.06372
          CHANNELS 3 Zrotation Xrotation Yrotation
          JOINT Head
          {
            OFFSET 0 6.74081 0
            CHANNELS 3 Zrotation Xrotation Yrotation
            End Site
            {
              OFFSET 0 16.3165 -5.38097
            }
          }
        }
        JOINT RightShoulder
        {
          OFFSET -3.65916 9.38468 -0.509514
          CHANNELS 3 Zrotation Xrotation Yrotation
          JOINT RightArm
          {
            OFFSET 0 12.3089 0
            CHANNELS 3 Zrotation Xrotation Yrotation
            JOINT RightArmRoll
            {
              OFFSET 0 6.21375 0
              CHANNELS 3 Zrotation Xrotation Yrotation
              JOINT RightForeArm
              {
                OFFSET 0 18.0985 0
                CHANNELS 3 Zrotation Xrotation Yrotation
                JOINT RightForeArmRoll
                {
                  OFFSET 0 6.97279 0
                  CHANNELS 3 Zrotation Xrotation Yrotation
                  JOINT RightHand
                  {
                    OFFSET 0 13.9929 0
                    CHANNELS 3 Zrotation Xrotation Yrotation
                    End Site
                    {
                      OFFSET 0 0 0
                    }
                  }
                }
              }
            }
          }
        }
        JOINT LeftShoulder
        {
          OFFSET 3.65916 9.38468 -0.509514
          CHANNELS 3 Zrotation Xrotation Yrotation
          JOINT LeftArm
          {
            OFFSET 0 12.3089 0
            CHANNELS 3 Zrotation Xrotation Yrotation
            JOINT LeftArmRoll
            {
              OFFSET 0 6.21375 0
              CHANNELS 3 Zrotation Xrotation Yrotation
              JOINT LeftForeArm
              {
                OFFSET 0 18.0985 0
                CHANNELS 3 Zrotation Xrotation Yrotation
                JOINT LeftForeArmRoll
                {
                  OFFSET 0 6.97279 0
                  CHANNELS 3 Zrotation Xrotation Yrotation
                  JOINT LeftHand
                  {
                    OFFSET 0 13.9929 0
                    CHANNELS 3 Zrotation Xrotation Yrotation
                    End Site
                    {
                      OFFSET 0 0 0
                    }
                  }
                }
              }
            }
          }
        }
      }
    }
  }
  JOINT RightUpLeg
  {
    OFFSET -5.53516 -1.015 -0.851454
    CHANNELS 3 Zrotation Xrotation Yrotation
    JOINT RightUpLegRoll
    {
      OFFSET 0 16.4075 0
      CHANNELS 3 Zrotation Xrotation Yrotation
      JOINT RightLeg
      {
        OFFSET 0 -20.3181 0
        CHANNELS 3 Zrotation Xrotation Yrotation
        JOINT RightLegRoll
        {
          OFFSET 0 20.3846 0
          CHANNELS 3 Zrotation Xrotation Yrotation
          JOINT RightFoot
          {
            OFFSET 0 16.9668 0
            CHANNELS 3 Zrotation Xrotation Yrotation
            JOINT RightToeBase
            {
              OFFSET 0 14.1834 0
              CHANNELS 3 Zrotation Xrotation Yrotation
              End Site
              {
                OFFSET 0.0060118 6.86889 -0.791746
              }
            }
          }
        }
      }
    }
  }
  JOINT LeftUpLeg
  {
    OFFSET 5.53516 -1.015 -0.851454
    CHANNELS 3 Zrotation Xrotation Yrotation
    JOINT LeftUpLegRoll
    {
      OFFSET 0 16.4076 0
      CHANNELS 3 Zrotation Xrotation Yrotation
      JOINT LeftLeg
      {
        OFFSET 0 20.3181 0
        CHANNELS 3 Zrotation Xrotation Yrotation
        JOINT LeftLegRoll
        {
          OFFSET 0 20.5731 0
          CHANNELS 3 Zrotation Xrotation Yrotation
          JOINT LeftFoot
          {
            OFFSET 0 16.7783 0
            CHANNELS 3 Zrotation Xrotation Yrotation
            JOINT LeftToeBase
            {
              OFFSET 0 14.1834 0
              CHANNELS 3 Zrotation Xrotation Yrotation
              End Site
              {
                OFFSET -0.0269423 6.8689 -0.791745
              }
            }
          }
        }
      }
    }
  }
}
MOTION
Frames: 5
Frame Time: 0.00208333
40.267 83.9343 0.0785536 0.171084 1.40459 -0.093124 -0.0328201 -2.6615 -0.0279726 -0.0684548 -1.32018 -0.0533406 -0.0678817 0.324894 -0.0521234 1.48224 18.8342 -0.935928 -0.647563 4.76253 -0.422289 41.6557 -10.4888 -6.58743 58.1061 39.2461 45.1056 -4.0898e-06 -4.30752e-06 -9.95355e-06 -2.40374 2.98151 -1.05186 1.35314e-05 -1.1841e-05 -3 8.0301 -4.95138 0.697644 -39.0647 -12.1636 8.13161 -57.2265 40.7914 -43.834 6.36111e-15 -3.18055e-15 -2.22639e-14 5.16747 2.06456 0.485674 6.04332e-07 -4.73902e-06 2.99999 -8.03013 -4.9514 -0.697631 -178.709 8.12483 -1.08584 180 7.0153e-15 178.851 177.803 14.4526 179.563 3.51543e-06 -3.04062e-06 0.507783 -25.1953 71.7728 23.6849 8.13649 25.2327 -3.48773 179.107 0.715968 -0.345172 -1.07169e-05 -4.64205e-06 -1.14309 -1.61309 -10.2304 0.57109 -8.76887e-07 2.67024e-06 -0.326358 25.6542 73.2093 -25.4833 -8.1906 26.0189 3.50669 
40.2624 83.9313 0.0743912 0.171614 1.40356 -0.0940519 -0.033825 -2.66183 -0.0266381 -0.0705921 -1.32085 -0.0505964 -0.0700713 0.324227 -0.0493379 1.49091 18.8373 -0.943216 -0.644362 4.74119 -0.426307 41.683 -10.4665 -6.56797 58.0653 39.2034 45.1242 -4.0898e-06 -4.30752e-06 -9.95355e-06 -2.4037 2.96758 -1.05246 1.35314e-05 -1.1841e-05 -3 8.0301 -4.95138 0.697644 -39.0532 -12.1559 8.12502 -57.2454 40.7872 -43.8201 9.54166e-15 -1.59028e-15 6.36111e-15 5.16475 2.06518 0.485722 6.04332e-07 -4.73902e-06 2.99999 -8.03013 -4.9514 -0.697631 -178.708 8.12139 -1.08664 180 7.0153e-15 178.851 177.804 14.4495 179.563 3.51543e-06 -3.04062e-06 0.507836 -25.196 71.7729 23.6857 8.13649 25.2327 -3.48773 179.107 0.715996 -0.345623 -1.07169e-05 -4.64205e-06 -1.14308 -1.6132 -10.2319 0.571097 -8.76887e-07 2.67024e-06 -0.326372 25.6512 73.2078 -25.4807 -8.19078 26.0215 3.50712 
40.2612 83.9326 0.0762148 0.172049 1.4025 -0.0949302 -0.0346896 -2.66206 -0.0254483 -0.0724144 -1.32131 -0.0481511 -0.0719384 0.323767 -0.0468578 1.49932 18.8377 -0.950103 -0.642653 4.72205 -0.430119 41.7073 -10.4477 -6.55147 58.0292 39.1671 45.141 -4.0898e-06 -4.30752e-06 -9.95355e-06 -2.40376 2.95541 -1.05298 1.35314e-05 -1.1841e-05 -3 8.0301 -4.95138 0.697644 -39.0428 -12.1494 8.11936 -57.2638 40.7838 -43.8077 9.54166e-15 0 -6.36111e-15 5.16303 2.06592 0.485721 6.04332e-07 -4.73902e-06 2.99999 -8.03013 -4.9514 -0.697631 -178.707 8.11831 -1.08731 180 7.0153e-15 178.851 177.805 14.4469 179.562 3.51543e-06 -3.04062e-06 0.50789 -25.1968 71.7731 23.6866 8.13649 25.2327 -3.48773 179.107 0.715996 -0.345983 -1.07169e-05 -4.64205e-06 -1.14307 -1.61317 -10.2335 0.571124 -8.76887e-07 2.67024e-06 -0.326387 25.6488 73.2066 -25.4787 -8.19093 26.0237 3.50748 
40.2613 83.932 0.0807573 0.172371 1.40145 -0.0957517 -0.035381 -2.66217 -0.0244391 -0.0738486 -1.32152 -0.046079 -0.0734076 0.323556 -0.0447589 1.50728 18.8348 -0.956452 -0.642682 4.70565 -0.433665 41.7279 -10.433 -6.53863 57.9988 39.1386 45.1555 -4.0898e-06 -4.30752e-06 -9.95355e-06 -2.40394 2.9454 -1.0534 1.35314e-05 -1.1841e-05 -3 8.0301 -4.95138 0.697644 -39.034 -12.1441 8.11486 -57.2811 40.7816 -43.797 1.27222e-14 0 6.36111e-15 5.16252 2.06678 0.485665 6.04332e-07 -4.73902e-06 2.99999 -8.03013 -4.9514 -0.697631 -178.707 8.11571 -1.0878 180 7.0153e-15 178.851 177.806 14.4449 179.562 3.51543e-06 -3.04062e-06 0.507945 -25.1977 71.7735 23.6875 8.13649 25.2327 -3.48773 179.107 0.715969 -0.346235 -1.07169e-05 -4.64205e-06 -1.14306 -1.613 -10.2351 0.571177 -8.76887e-07 2.67024e-06 -0.326401 25.6469 73.2058 -25.4774 -8.19106 26.0255 3.50777 
40.2595 83.9311 0.077752 0.172561 1.40041 -0.0965092 -0.0358668 -2.66213 -0.0236464 -0.0748214 -1.32144 -0.0444542 -0.0744036 0.323634 -0.0431169 1.51465 18.8279 -0.962125 -0.644694 4.69254 -0.436885 41.744 -10.4233 -6.53011 57.9753 39.1194 45.1672 -4.0898e-06 -4.30752e-06 -9.95355e-06 -2.40426 2.93794 -1.0537 1.35314e-05 -1.1841e-05 -3 8.0301 -4.95138 0.697644 -39.0271 -12.1405 8.11173 -57.2971 40.7808 -43.7885 -6.36111e-15 1.43125e-14 -6.36111e-15 5.1634 2.06774 0.485549 6.04332e-07 -4.73902e-06 2.99999 -8.03013 -4.9514 -0.697631 -178.706 8.11367 -1.0881 180 7.0153e-15 178.851 177.806 14.4437 179.562 3.51543e-06 -3.04062e-06 0.507999 -25.1988 71.774 23.6884 8.13649 25.2327 -3.48773 179.107 0.715917 -0.34636 -1.07169e-05 -4.64205e-06 -1.14305 -1.61264 -10.2369 0.571259 -8.76887e-07 2.67024e-06 -0.326416 25.6459 73.2055 -25.4768 -8.19114 26.0267 3.50798 
